<?xml version="1.0" standalone="no"?><!DOCTYPE svg PUBLIC "-//W3C//DTD SVG 1.1//EN" "http://www.w3.org/Graphics/SVG/1.1/DTD/svg11.dtd"><svg t="1687227252143" class="icon" viewBox="0 0 1024 1024" version="1.1" xmlns="http://www.w3.org/2000/svg" p-id="2395" xmlns:xlink="http://www.w3.org/1999/xlink" width="200" height="200"><path d="M640 384a42.666667 42.666667 0 0 1-42.666667-42.666667 42.666667 42.666667 0 0 1 42.666667-42.666666 42.666667 42.666667 0 0 1 42.666667 42.666666 42.666667 42.666667 0 0 1-42.666667 42.666667M384 384a42.666667 42.666667 0 0 1-42.666667-42.666667 42.666667 42.666667 0 0 1 42.666667-42.666666 42.666667 42.666667 0 0 1 42.666667 42.666666 42.666667 42.666667 0 0 1-42.666667 42.666667m303.786667-197.546667l89.6-89.6-34.986667-35.413333-98.56 98.56C604.16 139.946667 559.36 128 512 128c-47.786667 0-92.16 11.946667-131.84 32L281.6 61.44l-34.986667 35.413333 89.6 89.6C261.973333 240.64 213.333333 327.68 213.333333 426.666667v42.666666h597.333334v-42.666666c0-98.986667-48.64-186.026667-122.88-240.213334M213.333333 682.666667c0 164.693333 133.546667 298.666667 298.666667 298.666666a298.666667 298.666667 0 0 0 298.666667-298.666666v-170.666667H213.333333v170.666667z" fill="#1296db" p-id="2396"></path></svg>
